<svg xmlns="http://www.w3.org/2000/svg" viewBox="0 0 100 100">
  <!-- Cyberpunk background -->
  <rect width="100" height="100" fill="#0a0a12" />
  
  <!-- Grid pattern -->
  <path d="M0 10 H100 M0 20 H100 M0 30 H100 M0 40 H100 M0 50 H100 M0 60 H100 M0 70 H100 M0 80 H100 M0 90 H100" 
        stroke="#003b47" stroke-width="0.5" stroke-opacity="0.4"/>
  <path d="M10 0 V100 M20 0 V100 M30 0 V100 M40 0 V100 M50 0 V100 M60 0 V100 M70 0 V100 M80 0 V100 M90 0 V100" 
        stroke="#003b47" stroke-width="0.5" stroke-opacity="0.4"/>
  
  <!-- Hexagon outline -->
  <polygon points="50,10 90,30 90,70 50,90 10,70 10,30" 
           fill="none" stroke="#00f6ff" stroke-width="1.5" />
  
  <!-- Inner hexagon with glow -->
  <polygon points="50,20 80,35 80,65 50,80 20,65 20,35" 
           fill="none" stroke="#ff3e88" stroke-width="1" stroke-opacity="0.8" />
  
  <!-- N for Night City -->
  <path d="M35,40 L35,65 L45,40 L45,65" 
        fill="none" stroke="#00f6ff" stroke-width="3" />
  
  <!-- C for City -->
  <path d="M65,40 C55,40 55,65 65,65" 
        fill="none" stroke="#ff3e88" stroke-width="3" />
  
  <!-- Scanlines overlay -->
  <rect width="100" height="100" fill="url(#scanlines)" fill-opacity="0.1" />
  
  <!-- Radial glow effect -->
  <circle cx="50" cy="50" r="40" fill="url(#radialGlow)" fill-opacity="0.2" />
  
  <!-- Definitions -->
  <defs>
    <!-- Scanlines pattern -->
    <pattern id="scanlines" patternUnits="userSpaceOnUse" width="4" height="4">
      <rect width="4" height="2" fill="#00f6ff" fill-opacity="0.1" />
    </pattern>
    
    <!-- Radial glow -->
    <radialGradient id="radialGlow" cx="50%" cy="50%" r="50%" fx="50%" fy="50%">
      <stop offset="0%" stop-color="#ff3e88" stop-opacity="0.7" />
      <stop offset="100%" stop-color="#00f6ff" stop-opacity="0" />
    </radialGradient>
  </defs>
</svg>